# xmcd CD database file
#
# Track frame offsets:
#	150
#	7550
#	32118
#	57038
#	79015
#	103192
#	125272
#	159312
#	176683
#	200793
#	224975
#
# Disc length: 3490 seconds
#
# Revision: 0
# Processed by: cddbd v1.5.2PL0 Copyright (c) Steve Scherf et al.
# Submitted via: CDex 1.70beta2
#
DISCID=900da00b
DTITLE=Latvian Blues Band and Friends - Live at the Dream Factory
DYEAR=2013
DGENRE=Blues
TTITLE0=Intro
TTITLE1=Take That
TTITLE2=R U Ready
TTITLE3=Little by Little
TTITLE4=You Don't Love me
TTITLE5=Baby What's Wrong
TTITLE6=If You Love me Like You Say
TTITLE7=Who's Making Love
TTITLE8=300 Pounds of Joy
TTITLE9=Outro
TTITLE10=Evil
EXTD=YEAR: 2013
EXTT0=
EXTT1=
EXTT2=
EXTT3=
EXTT4=
EXTT5=
EXTT6=
EXTT7=
EXTT8=
EXTT9=
EXTT10=
PLAYORDER=
